<svg xmlns="http://www.w3.org/2000/svg" xmlns:xlink="http://www.w3.org/1999/xlink" version="1.1" width="1000" height="1000" viewBox="0 0 1000 1000" xml:space="preserve">
<desc>Created with Fabric.js 3.5.0</desc>
<defs>
</defs>
<rect x="0" y="0" width="100%" height="100%" fill="rgba(255,255,255,0)"/>
<g transform="matrix(1.7756 0 0 1.7756 500.0081 500.0081)" id="203504">
<g style="" vector-effect="non-scaling-stroke">
		<g transform="matrix(1 0 0 1 0 0)">
<path style="stroke: none; stroke-width: 1; stroke-dasharray: none; stroke-linecap: butt; stroke-dashoffset: 0; stroke-linejoin: miter; stroke-miterlimit: 4; is-custom-font: none; font-file-url: none; fill: rgb(0,0,0); fill-opacity: 0; fill-rule: nonzero; opacity: 1;" transform=" translate(-256, -256)" d="M 0 0 h 512 v 512 H 0 z" stroke-linecap="round"/>
</g>
		<g transform="matrix(1 0 0 1 0.3445 -1.08)">
<path style="stroke: none; stroke-width: 1; stroke-dasharray: none; stroke-linecap: butt; stroke-dashoffset: 0; stroke-linejoin: miter; stroke-miterlimit: 4; is-custom-font: none; font-file-url: none; fill: rgb(246,225,129); fill-rule: nonzero; opacity: 1;" transform=" translate(-256.3445, -254.92)" d="M 98.344 16.688 C 79.692 43.785 68.498 69.01 65.5 89.56 l 23.938 39.157 l 28.624 -33.47 c 0.868 -21.213 -5.49 -48.677 -19.718 -78.563 z M 472.5 19.625 C 444.04 36.055 423.112 54 411.562 71.25 l 4.75 45.688 L 456.563 99 c 9.89 -18.777 15.938 -46.29 15.938 -79.375 z m -91.75 27.28 c -10.153 21.036 -16.8 40.84 -20.156 58.314 l 18.375 57.686 l 19.78 -34.25 l -6.5 -62.22 h 0.03 c -3.422 -6.392 -7.252 -12.906 -11.53 -19.53 z M 27.25 80.782 c -0.125 23.364 2.393 44.102 6.875 61.314 L 75.5 186.25 l 3.125 -39.406 L 46 93.47 l 0.03 -0.032 c -5.83 -4.287 -12.08 -8.52 -18.78 -12.657 z m 132.844 10.532 c -8.415 3.504 -16.29 7.213 -23.594 11.094 l -39.25 45.97 l -3.094 39.374 l 50.438 -39.094 c 6.712 -15.904 12.09 -35.263 15.5 -57.344 z m 177.22 21.626 c -24.024 58.09 -16.16 97.86 7.873 108.5 l 21.157 -36.625 l -19.594 -61.438 c -2.973 -3.46 -6.108 -6.943 -9.438 -10.438 z m 146.03 0.218 c -4.55 -0.028 -8.97 0.084 -13.28 0.28 L 414.935 138 l -19.78 34.28 l 62.343 -13.655 c 12.897 -11.47 26.09 -26.626 38.656 -45.094 c -4.358 -0.216 -8.64 -0.348 -12.812 -0.374 z m -226.094 8.72 c -23.24 23.238 -38.832 46.003 -45.53 65.655 l 16.436 42.907 l 34.22 -27.75 c 4.695 -20.704 3.436 -48.856 -5.126 -80.812 z M 16.406 159.06 c 3.28 62.77 27.482 95.31 53.75 94.594 l 3.344 -42.22 l -44.063 -47 c -4.175 -1.844 -8.515 -3.647 -13.03 -5.374 z m 143.22 11.375 c -6.457 1.354 -12.63 2.896 -18.5 4.563 l -48.97 37.938 l -3.312 41.75 c 26.492 7.51 57.16 -20.567 70.78 -84.25 z m 16.06 1.563 c -4.36 22.935 -5.65 43.762 -4.374 61.5 l 32.688 51 l 10.22 -38.188 l -22.407 -58.437 h 0.03 c -4.952 -5.28 -10.318 -10.592 -16.155 -15.875 z m 267.408 8.938 l -60.563 13.218 l -20.936 36.25 c 20.682 18.195 60.438 6.035 100.125 -45.625 c -6.413 -1.552 -12.62 -2.823 -18.626 -3.843 z m -138.688 25.53 c -8.912 1.92 -17.304 4.16 -25.187 6.657 l -46.97 38.03 l -10.22 38.19 l 56.69 -29.283 c 9.493 -14.424 18.323 -32.49 25.686 -53.593 z m 155.125 25.063 c -25.85 20.324 -44.046 41.06 -53.03 59.782 l 11.22 44.532 l 37.28 -23.47 c 7.126 -19.99 9.236 -48.088 4.53 -80.843 z m -123.342 8.595 c -34.435 77.573 -59.394 159.06 -62.97 253.03 h 18.72 c 3.558 -90.792 27.573 -169.428 61.312 -245.436 l -17.063 -7.595 z m -185.375 6.906 c -8.173 62.347 9.714 98.713 35.687 102.75 l 10.97 -40.874 l -34.814 -54.25 c -3.77 -2.57 -7.713 -5.105 -11.844 -7.625 z m 221.75 24.532 c -7.053 22.243 -10.817 42.77 -11.657 60.532 l 26.406 54.594 L 402 349.967 l -15.28 -60.687 h 0.06 c -4.3 -5.848 -9.033 -11.76 -14.217 -17.717 z m -302.47 1.532 c -8.664 74.584 -8.13 147.835 12.188 220.062 h 19.44 c -20.877 -70.772 -21.764 -143.02 -13.064 -217.906 l -18.562 -2.156 z m 219.47 11.094 c -6.613 0.16 -12.953 0.54 -19.032 1.125 L 215.5 313.78 l -10.844 40.408 c 24.69 12.23 59.938 -9.82 84.906 -70 z m 206.718 36.937 c -9.072 0.844 -17.664 2.052 -25.78 3.594 l -51.156 32.217 l -14.688 36.657 l 59.75 -22.313 c 11.14 -13.193 22.055 -30.075 31.875 -50.155 z m -157.31 22 c -15.528 60.938 -2.096 99.19 23.217 106.28 l 15.72 -39.28 l -28.094 -58.03 c -3.43 -3 -7.053 -5.985 -10.844 -8.97 z M 183.25 368.72 c -12.674 41.233 -22.26 82.547 -26.844 124.436 h 18.813 c 4.507 -39.722 13.69 -79.23 25.905 -118.97 l -17.875 -5.467 z m 270 26.655 l -58 21.688 l -15.563 38.875 c 23.056 15.098 60.673 -2.606 92.625 -59.407 c -6.594 -0.627 -12.95 -1.003 -19.062 -1.155 z M 356.5 469.03 c -1.874 7.713 -3.185 15.757 -3.656 24.126 h 18.687 c 0.45 -6.686 1.55 -13.206 3.126 -19.687 l -18.156 -4.44 z" stroke-linecap="round"/>
</g>
</g>
</g>
</svg>